PathFileType	4	(X/Y/Z)	Kaydara																																																																																																																									
DataRate	CameraRate	NumFrames	NumMarkers	Units	OrigDataRate	OrigDataStartFrame	OrigNumFrames																																																																																																																					
30	30	7	41	mm	30	142	144																																																																																																																					
Frame#	Time	EMLA_LFHD			EMLA_RFHD			EMLA_LBHD			EMLA_RBHD			EMLA_LFTShould			EMLA_RFTShould			EMLA_LRRShould			EMLA_RRRShould			EMLA_T10			EMLA_STRN			EMLA_TRUN			EMLA_LSHO			EMLA_LUPA			EMLA_LELB			EMLA_LFRM			EMLA_LWRA			EMLA_LWRB			EMLA_LFIN			EMLA_RSHO			EMLA_RUPA			EMLA_RELB			EMLA_RFRM			EMLA_RWRA			EMLA_RWRB			EMLA_RFIN			EMLA_LFWT			EMLA_RFWT			EMLA_LBWT			EMLA_RBWT			EMLA_LTHI			EMLA_LKNE			EMLA_LSHN			EMLA_LANK			EMLA_LHEE			EMLA_LTOE			EMLA_RTHI			EMLA_RKNE			EMLA_RSHN			EMLA_RANK			EMLA_RHEE			EMLA_RTOE		
		X1	Y1	Z1	X2	Y2	Z2	X3	Y3	Z3	X4	Y4	Z4	X5	Y5	Z5	X6	Y6	Z6	X7	Y7	Z7	X8	Y8	Z8	X9	Y9	Z9	X10	Y10	Z10	X11	Y11	Z11	X12	Y12	Z12	X13	Y13	Z13	X14	Y14	Z14	X15	Y15	Z15	X16	Y16	Z16	X17	Y17	Z17	X18	Y18	Z18	X19	Y19	Z19	X20	Y20	Z20	X21	Y21	Z21	X22	Y22	Z22	X23	Y23	Z23	X24	Y24	Z24	X25	Y25	Z25	X26	Y26	Z26	X27	Y27	Z27	X28	Y28	Z28	X29	Y29	Z29	X30	Y30	Z30	X31	Y31	Z31	X32	Y32	Z32	X33	Y33	Z33	X34	Y34	Z34	X35	Y35	Z35	X36	Y36	Z36	X37	Y37	Z37	X38	Y38	Z38	X39	Y39	Z39	X40	Y40	Z40	X41	Y41	Z41
																																																																																																																												
127	4.7	269.19195	1557.6503	1583.44955	99.66222	1543.36029	1577.58652	288.84298	1550.89539	1434.88632	94.74963	1537.26883	1424.46869	282.33389	1323.81073	1525.83221	134.52425	1310.09598	1534.9826	271.62069	1369.74289	1377.51404	117.44799	1358.88214	1386.82159	208.77575	1191.69601	1334.80423	212.27627	1252.15317	1569.47174	213.05668	1148.82118	1588.58887	402.48455	1353.92609	1467.0256	472.87491	1183.75595	1500.03525	508.55034	1052.87415	1551.69571	491.6394	938.01819	1638.50266	385.08316	891.42105	1781.33209	437.34856	828.73543	1755.4805	427.42058	846.95755	1821.0701	11.63502	1340.92758	1470.01205	-42.39688	1154.48242	1422.43118	-54.08262	1024.0831	1360.12207	-58.55369	936.5834	1317.73743	-15.70042	739.70055	1353.68271	-54.22502	757.79099	1277.21481	-71.40749	706.13693	1311.6864	333.3073	914.66095	1533.53622	101.86161	899.4487	1563.92258	262.65549	929.96346	1340.57098	92.48899	914.20914	1377.44171	327.93724	694.18617	1299.47601	345.75813	481.50108	1284.38538	311.12955	302.30286	1229.37599	305.36999	169.75389	1090.70374	238.84773	124.15618	1000.17548	256.29757	40.89899	1175.84679	76.56961	605.43274	1490.46799	63.59612	461.0302	1658.73444	113.56714	277.55688	1773.72559	74.56525	96.6675	1792.30194	134.01289	25.8222	1770.37628	104.30673	109.29483	1950.79865
128	4.733	263.37603	1553.62045	1635.94284	93.90734	1539.39743	1628.88611	284.35127	1544.08554	1487.83722	90.24827	1530.466	1476.91147	276.39584	1318.68774	1583.14392	128.57078	1305.00229	1590.32227	267.6152	1362.64313	1433.79639	113.69651	1351.74316	1441.30783	206.40478	1183.9595	1393.0751	205.669	1247.67082	1627.0607	206.22866	1144.47372	1647.34299	397.00104	1348.80493	1525.10895	467.69592	1178.76854	1558.03131	503.58055	1047.92694	1608.18253	486.74091	933.42484	1695.99548	381.39473	889.3	1840.79041	432.48295	825.64484	1814.76135	424.13677	844.85321	1880.18234	6.75919	1335.11566	1524.07547	-47.84101	1149.20708	1475.46463	-59.51743	1019.77676	1411.87958	-64.85254	934.09477	1367.50885	-23.79796	735.32402	1397.62314	-63.18413	756.86676	1322.37213	-79.32059	703.54088	1354.55093	326.89915	906.0289	1596.38702	94.36503	896.93069	1623.54126	257.89091	923.27332	1403.0899	87.04077	910.76866	1436.7981	321.43867	690.6292	1357.67929	346.36093	479.52721	1334.89777	313.76259	304.16237	1265	307.84353	184.72387	1114.67125	240.51485	149.51377	1022.04041	256.44716	40.42858	1180.95055	66.2175	605.05077	1557.12433	60.70048	461.93924	1723.96637	116.25531	264.42305	1825.88669	82.38952	82.15044	1824.38736	139.67951	19.29772	1794.09241	110.48627	75.0206	1984.56711
129	4.767	257.90665	1554.41147	1688.63876	88.46821	1541.39603	1681.01456	279.69389	1541.7128	1541.03348	85.55947	1529.26224	1529.17038	270.88594	1318.70987	1642.11823	121.9558	1303.76099	1646.8309	263.26984	1359.93423	1491.07986	109.75307	1348.93768	1498.43002	202.96782	1179.1275	1452.55081	198.6618	1247.69348	1685.61432	198.68399	1145.06599	1708.05389	393.16757	1346.42715	1583.3667	462.77191	1175.12642	1616.08994	499.0546	1043.08716	1661.88721	482.10266	927.47871	1747.89047	378.96275	882.11441	1893.38089	428.71838	818.30574	1865.21896	421.91898	836.37993	1931.017	1.14309	1332.12646	1578.11996	-54.11188	1145.68611	1530.11032	-65.99565	1016.58157	1467.0256	-71.73692	931.20674	1422.8157	-32.34953	731.91063	1452.31369	-71.68322	754.38744	1376.87943	-88.3354	701.01112	1408.99017	319.21627	899.24637	1659.81216	87.38638	903.32581	1681.42914	255.71198	918.1263	1465.05753	82.4437	914.37584	1493.38089	314.23908	683.07579	1422.86118	346.82514	473.84579	1399.12781	318.30318	305.51144	1312.97302	309.35461	202.19831	1150.84091	239.79939	178.53148	1060.80887	256.71913	38.07375	1188.52455	60.80369	609.95533	1617.12036	53.47116	470.79994	1789.62936	118.39064	263.03242	1870.57358	78.84856	83.49587	1850.69	134.54672	28.75174	1804.19754	116.22852	40.19354	2004.85596
130	4.8	253.11535	1558.6319	1741.54633	83.51785	1547.14813	1733.56537	275.35542	1542.29202	1594.36951	81.26806	1531.60614	1581.91467	265.04974	1321.08673	1701.30264	116.68921	1306.44363	1702.26639	261.65136	1364.09546	1550.923	107.06762	1351.50101	1553.61481	203.70396	1185.56602	1510.93292	192.08481	1250.73227	1742.99683	191.82133	1148.17123	1765.90286	388.91415	1349.84192	1647.07123	458.67622	1175.42992	1670.65033	493.81699	1042.21375	1710.0148	477.97363	922.84309	1790.96832	378.20934	871.17271	1936.56647	426.50246	808.17162	1904.14841	421.72997	823.53951	1970.9581	-3.13653	1333.91327	1631.93497	-58.7733	1146.39603	1587.36847	-71.75846	1016.42181	1527.28058	-78.27914	930.24429	1484.32709	-41.25781	730.70229	1518.72345	-80.32419	752.39731	1442.29218	-97.99313	700.15862	1475.62881	310.68584	897.88391	1720.70557	78.45388	912.14737	1735.60394	257.86697	914.56863	1523.22052	82.56914	921.08177	1546.21063	307.94956	668.85109	1493.01849	349.41181	462.88548	1479.63409	322.81746	304.06769	1377.85126	308.29678	222.1924	1205.20996	235.43356	213.69095	1120.15404	256.10722	44.6783	1206.27525	43.90234	619.6817	1673.65158	44.75919	478.49678	1844.83429	110.08474	260.47113	1903.67981	78.65008	83.59371	1859.40414	134.83386	31.98124	1808.71704	117.10923	33.41975	2012.20291
131	4.833	249.53573	1565.29465	1793.84384	79.89257	1554.8912	1785.59845	272.10478	1546.5358	1647.04773	77.78972	1536.87424	1634.27002	261.46795	1328.15079	1756.22787	113.73485	1312.22153	1756.05103	260.03349	1371.41769	1606.28647	105.55982	1356.65024	1607.01096	204.56102	1190.27161	1564.32312	189.01619	1256.41251	1797.22366	189.12027	1153.61862	1819.22318	385.93323	1357.22107	1704.0564	454.73923	1182.07405	1724.82925	488.88561	1046.38428	1755.21118	474.8682	921.24397	1826.9809	378.42815	857.11319	1969.65927	425.79994	796.97029	1930.8168	423.3572	807.16057	1998.66745	-5.35049	1338.86826	1684.09332	-62.04575	1149.91295	1645.22369	-77.03681	1018.23608	1590.17517	-84.32987	929.95232	1551.09344	-50.35846	732.34665	1595.34622	-88.11684	750.48203	1517.77634	-107.28296	700.32028	1552.90527	304.3815	899.62135	1774.00604	72.22076	920.62973	1786.69724	254.76768	916.54213	1575.48416	79.36608	929.50714	1596.39954	302.11288	651.56189	1565.93735	348.91312	450.22984	1573.31299	321.53919	304.75624	1461.5918	304.08756	244.81562	1280.6572	226.5764	248.48263	1207.11983	266.54892	61.53626	1241.32996	39.57907	628.47137	1710.25131	36.18891	474.51012	1875.76523	106.91532	256.36141	1919.78546	79.43147	83.46688	1862.85278	134.90447	33.6188	1808.76938	118.16895	32.69723	2012.10129
132	4.867	247.45596	1575.21164	1845.21835	77.82388	1563.85773	1837.05963	270.41998	1556.49323	1698.55484	75.87107	1545.54886	1685.62531	261.92881	1337.38785	1806.81595	113.90796	1320.6778	1807.74002	257.97581	1380.8107	1656.70914	103.25038	1366.14899	1658.56628	201.34645	1200.98412	1615.20844	189.99474	1265.46532	1848.33832	190.81205	1162.57782	1869.99283	385.82821	1367.18948	1752.49161	451.16356	1191.84776	1772.41211	484.5116	1053.67302	1796.54251	473.05721	923.29971	1856.36139	379.65782	843.03902	1993.00095	427.55554	788.33534	1947.19864	425.4966	790.45784	2015.56274	-6.77287	1346.50162	1737.01416	-64.18833	1155.68214	1704.63211	-81.42409	1021.86111	1656.43387	-89.62856	931.05179	1622.31903	-57.63723	737.12875	1679.66751	-94.52294	749.41719	1600.64163	-115.40299	702.65266	1640.20767	300.08476	906.27335	1822.93533	67.33181	929.76433	1833.82477	251.83903	924.06425	1623.81256	77.04545	942.7829	1644.61487	297.66123	642.07855	1638.71017	346.44157	446.96697	1671.7363	316.33326	309.55584	1555.52933	296.14264	263.94554	1368.81912	211.75468	267.66857	1299.20166	281.34657	85.86474	1322.93777	39.1002	633.8866	1741.05942	33.89148	475.8147	1898.49457	104.50618	253.77779	1930.37704	79.00264	84.70001	1864.56512	135.22624	34.84676	1808.93127	118.87534	32.27684	2012.02972
133	4.9	247.19624	1585.04272	1895.20477	77.59543	1572.97455	1887.55051	269.78718	1568.06488	1748.1398	75.07695	1556.38397	1735.97397	262.77884	1348.8678	1853.69904	115.20379	1331.45981	1857.11487	255.62502	1391.18668	1703.7326	100.8851	1377.28073	1707.92389	198.07854	1211.56166	1662.5499	191.73679	1276.13998	1896.1557	192.46393	1173.2029	1917.71378	385.99415	1377.97333	1797.14859	452.1579	1201.03783	1807.00531	482.2438	1061.49452	1830.76141	473.35438	927.85255	1879.3071	382.04323	831.30547	2007.59506	432.47242	784.6315	1956.33163	428.41309	776.88065	2024.01962	-7.49281	1356.91788	1788.91815	-64.68207	1164.30252	1767.02515	-84.68267	1027.96371	1726.34003	-93.72319	934.54948	1698.71567	-61.16807	745.34309	1769.34937	-98.89263	751.3353	1690.87891	-120.34723	708.92319	1734.49692	295.96172	918.58269	1870.75912	62.6098	938.15094	1878.21945	251.14332	935.04311	1670.95383	76.09046	954.34402	1689.42291	296.56321	641.26389	1712.10281	341.65253	453.55221	1768.83408	312.29366	316.96949	1656.63696	290.6669	274.97482	1470.11719	208.35848	275.5755	1391.13083	277.83932	98.53611	1439.34906	34.62959	645.52734	1772.21619	32.95882	474.11003	1913.9151	103.99391	252.01622	1937.10602	79.29994	84.5987	1865.22629	135.58241	35.95099	1809.09134	119.63604	31.96299	2012.0076
